<?xml version="1.0" encoding="utf-8"?>
<!-- Generator: Adobe Illustrator 24.1.2, SVG Export Plug-In . SVG Version: 6.00 Build 0)  -->
<svg version="1.1" xmlns="http://www.w3.org/2000/svg" xmlns:xlink="http://www.w3.org/1999/xlink" x="0px" y="0px"
	 viewBox="0 0 500 500" style="enable-background:new 0 0 500 500;" xml:space="preserve">
<style type="text/css">
	.st0{fill:none;stroke:#000000;stroke-width:26;stroke-miterlimit:10;}
	.st1{display:none;}
	.st2{display:inline;}
</style>
<g id="Layer_1">
	<path class="st0" d="M399,219.72V405.5c0,12.43-9.57,22.5-21.37,22.5H70.37C58.57,428,49,417.92,49,405.5V115.5
		C49,103.08,58.57,93,70.37,93h214.46"/>
	<circle cx="299" cy="93" r="13"/>
	<circle cx="399" cy="205" r="13"/>
	<g>
		<g>
			<path d="M230.56,244.77c-54.06-30.53-108.12-61.05-162.18-91.58c-4.37,7.48-8.75,14.97-13.12,22.45
				c1.58,0.89,3.17,1.79,4.75,2.68c14.59,8.24,27.71-14.21,13.12-22.45c-4.19-2.37-8.38-4.73-12.58-7.1
				c-14.59-8.24-27.71,14.21-13.12,22.45c23.46,13.25,46.92,26.5,70.38,39.75c14.59,8.24,27.71-14.21,13.12-22.45
				c-23.46-13.25-46.92-26.5-70.38-39.75c-4.37,7.48-8.75,14.97-13.12,22.45c4.19,2.37,8.38,4.73,12.58,7.1
				c4.37-7.48,8.75-14.97,13.12-22.45c-1.58-0.89-3.17-1.79-4.75-2.68c-14.59-8.24-27.71,14.21-13.12,22.45
				c54.06,30.53,108.12,61.05,162.18,91.58C232.03,275.46,245.15,253.01,230.56,244.77L230.56,244.77z"/>
		</g>
	</g>
	<rect x="386" y="207" width="26" height="22"/>
	<rect x="274" y="82" transform="matrix(-1.836970e-16 1 -1 -1.836970e-16 380 -194)" width="26" height="22"/>
	<g>
		<g>
			<g>
				<path d="M385.39,35.5c0,38.33,0,76.67,0,115c0,16.73,26,16.76,26,0c0-38.33,0-76.67,0-115
					C411.39,18.77,385.39,18.74,385.39,35.5L385.39,35.5z"/>
			</g>
		</g>
		<g>
			<g>
				<path d="M456.5,80.61c-38.33,0-76.67,0-115,0c-16.73,0-16.76,26,0,26c38.33,0,76.67,0,115,0
					C473.23,106.61,473.26,80.61,456.5,80.61L456.5,80.61z"/>
			</g>
		</g>
	</g>
	<g>
		<g>
			<path d="M229.56,267.23c39.75-22.58,79.5-45.16,119.25-67.73c14.55-8.26,1.46-30.73-13.12-22.45c-1.16,0.66-2.33,1.32-3.49,1.98
				c-14.55,8.26-1.46,30.73,13.12,22.45c3.08-1.75,6.16-3.5,9.25-5.25c-4.37-7.48-8.75-14.97-13.12-22.45
				c-17.25,9.8-34.5,19.6-51.75,29.4c-14.55,8.26-1.46,30.73,13.12,22.45c17.25-9.8,34.5-19.6,51.75-29.4
				c14.55-8.26,1.46-30.73-13.12-22.45c-3.08,1.75-6.16,3.5-9.25,5.25c4.37,7.48,8.75,14.97,13.12,22.45
				c1.16-0.66,2.33-1.32,3.49-1.98c-4.37-7.48-8.75-14.97-13.12-22.45c-39.75,22.58-79.5,45.16-119.25,67.73
				C201.89,253.04,214.98,275.51,229.56,267.23L229.56,267.23z"/>
		</g>
	</g>
</g>
<g id="Layer_2" class="st1">
	<g>
		<g class="st2">
			<path d="M33.76,108.32c68.23,0,136.46,0,204.69,0c19.64,0,39.27,0,58.91,0c10.88,0,21.3-9.57,20.8-20.8
				c-0.5-11.27-9.14-20.8-20.8-20.8c-68.23,0-136.46,0-204.69,0c-19.64,0-39.27,0-58.91,0c-10.88,0-21.3,9.57-20.8,20.8
				C13.47,98.79,22.1,108.32,33.76,108.32L33.76,108.32z"/>
		</g>
	</g>
	<g>
		<g class="st2">
			<path d="M12.5,86.87c0,93.08,0,186.17,0,279.25c0,26.6,0,53.19,0,79.79c0,10.2,8.97,19.97,19.5,19.5
				c10.57-0.47,19.5-8.57,19.5-19.5c0-93.08,0-186.17,0-279.25c0-26.6,0-53.19,0-79.79c0-10.2-8.97-19.97-19.5-19.5
				C21.43,67.85,12.5,75.94,12.5,86.87L12.5,86.87z"/>
		</g>
	</g>
	<g>
		<g class="st2">
			<path d="M31.85,466.23c101.53,0,203.06,0,304.59,0c28.53,0,57.07,0,85.6,0c10.2,0,19.97-8.97,19.5-19.5
				c-0.47-10.57-8.57-19.5-19.5-19.5c-101.53,0-203.06,0-304.59,0c-28.53,0-57.07,0-85.6,0c-10.2,0-19.97,8.97-19.5,19.5
				C12.82,457.3,20.92,466.23,31.85,466.23L31.85,466.23z"/>
		</g>
	</g>
	<g>
		<g class="st2">
			<path d="M402.71,230.59c0,71.8,0,143.6,0,215.41c0,10.2,8.97,19.97,19.5,19.5c10.57-0.47,19.5-8.57,19.5-19.5
				c0-71.8,0-143.6,0-215.41c0-10.2-8.97-19.97-19.5-19.5C411.65,211.57,402.71,219.66,402.71,230.59L402.71,230.59z"/>
		</g>
	</g>
	<g>
		<g class="st2">
			<path d="M22.77,169.35c64.8,38.16,129.59,76.33,194.39,114.49c8.8,5.18,21.77,2.29,26.68-7c4.95-9.37,2.4-21.15-7-26.68
				C172.05,212,107.25,173.84,42.45,135.67c-8.8-5.18-21.77-2.29-26.68,7C10.82,152.04,13.38,163.82,22.77,169.35L22.77,169.35z"/>
		</g>
	</g>
	<g>
		<g class="st2">
			<path d="M236.84,283.84c42.33-22.67,84.67-45.33,127-68c9-4.82,12.56-18.06,7-26.68c-5.9-9.15-17.05-12.15-26.68-7
				c-42.33,22.67-84.67,45.33-127,68c-9,4.82-12.56,18.06-7,26.68C216.06,285.99,227.21,288.99,236.84,283.84L236.84,283.84z"/>
		</g>
	</g>
</g>
</svg>
